<?xml version="1.0" standalone="no"?>
<!DOCTYPE svg PUBLIC "-//W3C//DTD SVG 20010904//EN"
 "http://www.w3.org/TR/2001/REC-SVG-20010904/DTD/svg10.dtd">
<svg version="1.0" xmlns="http://www.w3.org/2000/svg"
 width="1667.000000pt" height="1667.000000pt" viewBox="0 0 1667.000000 1667.000000"
 preserveAspectRatio="xMidYMid meet">
<metadata>
Created by potrace 1.14, written by Peter Selinger 2001-2017
</metadata>
<g transform="translate(0.000000,1667.000000) scale(0.100000,-0.100000)"
fill="#000000" stroke="none">
<path d="M6247 12610 c-160 -42 -293 -175 -337 -339 -9 -34 -17 -344 -11 -443
1 -17 20 -18 246 -18 l245 0 1 113 c0 61 3 125 5 141 13 79 68 152 141 186 43
20 63 22 228 22 l180 1 148 146 c82 80 153 155 159 165 22 41 3 43 -481 43
-400 0 -467 -2 -524 -17z"/>
<path d="M5909 11722 c-12 -2 -14 -464 -13 -3372 0 -1854 4 -3373 7 -3377 9
-8 475 -8 483 0 7 7 7 6737 0 6744 -4 5 -454 10 -477 5z"/>
<path d="M6527 11252 c-13 -3 -17 -15 -18 -50 0 -61 0 -3784 0 -3798 1 -8 124
-11 419 -10 l417 1 0 803 c0 441 2 802 5 802 3 0 14 -26 23 -57 10 -32 81
-251 158 -488 146 -445 312 -954 332 -1015 7 -19 16 -38 20 -41 4 -3 214 -6
467 -6 l458 0 -30 81 c-16 45 -63 173 -103 286 -40 113 -80 223 -88 245 -24
61 -158 435 -173 480 -7 22 -26 76 -42 120 -16 44 -91 251 -166 460 l-137 379
67 166 c37 91 74 181 83 200 8 19 15 37 16 40 1 3 5 14 10 25 27 65 167 410
330 810 103 253 198 484 210 513 16 34 20 52 12 53 -7 0 -215 1 -464 2 l-452
2 -41 -105 c-22 -58 -54 -141 -71 -185 -17 -44 -35 -89 -40 -100 -5 -11 -34
-87 -65 -170 -31 -82 -64 -170 -74 -195 -10 -25 -39 -101 -65 -170 -49 -129
-94 -246 -139 -362 -14 -36 -26 -71 -26 -77 0 -5 -3 -12 -8 -14 -4 -3 -7 305
-7 684 l0 689 -30 1 c-100 3 -774 3 -788 1z"/>
<path d="M9511 11239 c-117 -32 -149 -63 -317 -304 -165 -237 -208 -304 -224
-350 -12 -34 -14 -286 -15 -1613 0 -1397 1 -1573 15 -1576 20 -5 801 -5 820 0
13 3 15 73 14 561 0 307 1 563 3 568 2 7 107 10 301 10 l297 0 1 -565 c1 -311
2 -568 3 -571 0 -3 190 -6 421 -6 l420 0 1 51 c0 28 0 742 0 1586 0 1313 -2
1541 -14 1575 -24 66 -285 507 -325 548 -41 42 -116 81 -177 93 -22 4 -294 8
-604 8 -483 1 -572 -1 -620 -15z m894 -1344 l0 -530 -300 0 -300 0 -1 525 c0
289 1 528 2 531 2 3 137 5 301 5 l298 -1 0 -530z"/>
<path d="M11413 11245 c-2 -6 23 -87 56 -180 32 -94 107 -307 166 -475 58
-168 117 -334 130 -370 13 -36 42 -117 64 -180 42 -122 135 -386 233 -665 l60
-170 1 -905 2 -905 426 -1 426 -1 1 906 0 906 122 340 c67 187 123 347 125
355 2 8 34 98 70 200 37 102 98 273 135 380 38 107 96 272 128 365 33 94 66
186 72 205 6 19 14 42 17 50 38 102 52 145 48 149 -4 3 -838 5 -906 2 -10 -1
-21 -20 -31 -58 -9 -32 -46 -173 -83 -313 -101 -383 -123 -456 -128 -440 -5
14 -15 52 -24 90 -19 83 -191 711 -196 716 -12 12 -909 10 -914 -1z"/>
<path d="M14470 11249 c-124 -13 -206 -70 -287 -201 -26 -43 -105 -169 -174
-280 -69 -112 -132 -216 -140 -233 -12 -25 -14 -213 -16 -1225 -2 -1063 -1
-1201 13 -1245 13 -40 99 -186 137 -230 4 -5 53 -75 109 -155 134 -195 173
-234 268 -270 53 -20 1121 -24 1202 -5 117 29 156 66 290 281 57 90 114 181
128 203 79 126 124 207 136 248 12 39 14 240 13 1227 0 1154 -1 1182 -20 1233
-11 28 -98 163 -193 300 -187 269 -223 307 -324 339 -49 15 -111 17 -566 18
-281 1 -540 -2 -576 -5z m752 -1884 c0 -545 -1 -1009 -1 -1031 l-1 -41 -267 0
-268 0 2 961 c1 529 2 993 2 1031 l1 70 266 0 267 0 -1 -990z"/>
<path d="M5615 11225 c-203 -39 -409 -98 -595 -170 -87 -34 -388 -177 -435
-207 -10 -7 -57 -37 -104 -66 -83 -53 -212 -145 -241 -173 -8 -8 -35 -30 -60
-50 -53 -42 -242 -233 -296 -299 -57 -70 -114 -148 -164 -226 -25 -39 -51 -79
-57 -90 -90 -139 -281 -600 -258 -622 4 -4 103 -7 222 -7 l215 0 24 -28 c13
-16 24 -37 24 -48 0 -18 -46 -111 -153 -309 -16 -30 -52 -98 -79 -150 -97
-184 -190 -359 -257 -485 -57 -106 -44 -99 -199 -105 -133 -5 -137 -6 -140
-27 -2 -13 -7 -23 -11 -23 -35 0 -422 -72 -621 -115 -91 -20 -251 -58 -275
-65 -16 -5 -41 -11 -55 -14 -97 -16 -541 -156 -760 -239 -272 -102 -617 -272
-750 -368 -57 -42 -77 -95 -71 -189 1 -13 43 -15 319 -15 l317 0 3 -37 3 -38
-48 -1 c-26 0 -170 0 -320 -1 l-271 0 -4 -32 -4 -33 386 -1 c212 0 392 -1 401
-1 14 -1 17 -27 10 -71 -1 -3 -175 -5 -388 -4 -214 0 -393 -1 -398 -3 -6 -2
-10 -16 -9 -31 l1 -27 304 -2 c167 -1 312 -2 322 -2 13 -1 17 -10 17 -40 l0
-39 -315 1 c-173 0 -317 -1 -319 -4 -2 -2 -6 -15 -8 -29 l-3 -25 400 -5 400
-5 1 -37 0 -38 -397 0 c-416 0 -412 0 -401 -42 5 -22 -27 -20 340 -20 l302 -1
0 -38 0 -39 -320 0 c-249 0 -320 -3 -321 -12 -2 -22 3 -43 11 -48 4 -3 183 -5
397 -4 l388 1 1 -39 c1 -37 0 -38 -35 -39 -20 0 -199 -1 -398 -1 -325 -1 -362
-3 -366 -17 -12 -46 -11 -46 323 -46 l315 0 3 -40 3 -40 -320 0 -320 0 -4 -22
c-2 -12 -1 -26 2 -31 4 -6 156 -10 386 -10 209 -1 387 -1 396 -2 11 0 16 -10
16 -35 0 -19 -5 -36 -11 -36 -6 -1 -182 -3 -391 -4 -209 -1 -385 -3 -391 -4
-6 0 -10 -11 -8 -23 1 -13 3 -26 3 -30 1 -5 145 -8 321 -8 l320 0 0 -39 0 -38
-316 -1 c-203 0 -319 -3 -323 -10 -8 -13 -6 -930 2 -939 9 -9 945 -8 954 1 4
4 8 21 9 39 2 55 15 150 26 192 6 22 11 45 12 50 9 43 60 172 95 235 75 139
185 265 316 362 368 275 870 293 1255 44 90 -58 103 -69 186 -151 163 -163
258 -342 310 -589 3 -12 7 -57 11 -101 3 -44 7 -82 9 -84 2 -2 473 -4 1046 -4
l1043 0 3 3141 2 3142 -32 -1 c-18 0 -87 -11 -153 -24z m-99 -1747 c22 -15 48
-42 59 -60 20 -33 20 -60 22 -2017 3 -1934 3 -1984 -16 -2026 -13 -29 -34 -53
-62 -72 l-43 -28 -622 -2 c-461 -2 -631 0 -651 9 -66 28 -108 88 -118 170 -3
18 -7 44 -10 58 -3 14 -7 34 -9 45 -9 43 -50 153 -84 220 -90 180 -250 359
-429 477 -156 104 -142 28 -142 796 0 718 -4 673 75 833 25 52 75 153 109 224
35 72 174 355 310 630 136 275 265 538 287 585 53 110 82 148 130 170 35 16
86 17 597 16 l558 -1 39 -27z"/>
<path d="M4330 9469 c-49 -22 -62 -42 -163 -249 -47 -96 -185 -377 -307 -625
-313 -635 -395 -804 -411 -850 -11 -32 -14 -173 -15 -690 -1 -768 -15 -687
140 -791 281 -190 482 -489 527 -786 14 -86 34 -127 82 -162 28 -21 36 -21
648 -22 613 -2 620 -1 662 20 29 14 49 34 63 63 l21 42 -1 1983 -1 1983 -23
31 c-13 16 -37 39 -55 49 -30 19 -59 20 -581 20 -489 0 -553 -1 -586 -16z
m1024 -172 c49 -22 93 -70 107 -117 7 -23 9 -171 7 -420 l-3 -385 -31 -66
c-61 -127 -174 -219 -301 -244 -22 -4 -936 -8 -1265 -5 -64 0 -98 22 -98 63 0
12 25 74 56 137 31 63 75 156 99 205 357 744 348 727 401 773 84 75 101 77
575 76 367 0 418 -2 453 -17z m106 -1727 c24 -24 27 -87 6 -115 -13 -18 -29
-19 -182 -20 -149 -1 -170 1 -186 17 -25 25 -24 92 2 118 18 18 33 20 180 20
147 0 162 -2 180 -20z"/>
<path d="M5106 7564 c-20 -19 -21 -88 -2 -106 20 -21 343 -18 356 2 15 24 11
87 -6 104 -23 24 -325 24 -348 0z"/>
<path d="M6514 7132 c-19 -3 -20 -9 -18 -105 1 -56 2 -105 3 -108 1 -3 2172
-6 4826 -6 l4825 0 0 109 c0 96 -2 108 -17 109 -59 2 -9602 3 -9619 1z"/>
<path d="M6555 6557 c-13 -7 -15 -71 -15 -437 0 -235 3 -435 6 -444 5 -14 36
-16 240 -16 179 0 236 3 239 13 2 6 6 34 8 60 6 79 3 80 -172 80 -129 0 -153
2 -160 16 -11 21 -11 161 0 182 7 14 27 16 118 16 71 0 115 4 124 12 15 12 17
107 3 130 -5 7 -47 11 -120 11 -80 0 -117 4 -124 13 -16 19 -13 194 4 208 9 7
65 11 158 11 113 0 148 3 157 14 14 17 13 114 -1 128 -13 13 -443 16 -465 3z"/>
<path d="M7500 6555 c-9 -11 5 -35 170 -286 50 -75 90 -145 90 -156 0 -12 -35
-74 -78 -139 -43 -66 -103 -157 -134 -204 -30 -47 -53 -91 -51 -97 7 -17 143
-17 165 0 9 6 55 72 103 145 47 72 93 132 100 132 8 0 53 -60 101 -132 47 -73
93 -139 102 -145 9 -8 45 -13 88 -13 48 0 73 4 77 13 2 6 -56 104 -129 217
-74 113 -134 213 -134 222 0 19 18 48 172 282 67 102 95 153 88 160 -13 13
-129 16 -152 4 -10 -5 -59 -71 -109 -148 -50 -77 -94 -140 -98 -140 -15 1 -32
22 -110 142 -45 70 -89 133 -98 140 -19 16 -150 19 -163 3z"/>
<path d="M8715 6558 c-13 -8 -15 -64 -15 -438 0 -235 3 -435 6 -444 8 -20 128
-23 141 -3 4 6 8 78 8 159 0 81 5 152 10 157 6 5 62 11 125 13 133 4 173 20
226 91 45 60 54 96 51 205 -4 110 -22 159 -79 207 -62 52 -89 58 -280 60 -98
0 -184 -3 -193 -7z m373 -172 c19 -18 24 -35 26 -87 5 -123 -21 -148 -156
-145 -47 0 -90 5 -94 9 -11 11 -13 208 -2 229 9 19 44 24 138 20 52 -2 70 -7
88 -26z"/>
<path d="M9727 6558 c-14 -9 -19 -851 -5 -880 12 -25 133 -26 142 -2 3 9 6 82
6 164 0 165 -2 160 74 160 43 0 43 0 70 -60 76 -170 127 -268 142 -274 24 -9
142 -7 148 2 3 5 -31 86 -76 181 -77 164 -81 174 -62 184 30 17 79 72 98 111
12 25 17 65 18 133 2 113 -18 174 -74 224 -62 56 -87 61 -286 63 -100 1 -188
-2 -195 -6z m326 -147 c17 -1 38 -12 52 -27 22 -24 25 -36 25 -100 0 -62 -3
-77 -24 -101 -22 -25 -29 -27 -112 -29 -128 -4 -125 -6 -122 134 l3 117 40 5
c22 3 56 4 75 3 19 -1 48 -2 63 -2z"/>
<path d="M10776 6554 c-13 -13 -16 -861 -3 -881 6 -10 65 -13 236 -13 171 0
231 3 238 13 14 17 10 114 -5 129 -8 8 -58 12 -156 11 -79 0 -149 3 -156 7
-17 11 -16 190 1 201 7 4 60 7 118 6 122 -2 131 3 131 73 0 82 3 80 -130 80
-67 0 -121 4 -125 10 -11 19 -10 199 2 211 8 8 62 12 160 11 122 0 149 3 159
16 12 16 12 117 0 129 -12 13 -458 10 -470 -3z"/>
<path d="M11909 6553 c-144 -43 -217 -218 -145 -348 34 -63 88 -103 194 -145
139 -55 169 -86 151 -154 -34 -121 -194 -122 -250 -1 -13 28 -18 30 -78 33
-74 3 -84 -5 -74 -58 26 -149 205 -254 358 -209 162 48 251 246 172 382 -37
62 -86 97 -200 141 -106 41 -147 73 -147 116 0 63 37 100 101 100 30 0 71 -32
94 -74 8 -15 24 -20 67 -21 31 -1 62 1 69 6 33 20 -3 121 -62 176 -61 56 -170
80 -250 56z"/>
<path d="M12922 6551 c-105 -36 -161 -108 -170 -217 -9 -118 55 -206 190 -261
156 -63 188 -84 188 -128 0 -43 -32 -96 -71 -115 -71 -37 -143 -10 -179 66
-12 24 -26 44 -31 45 -5 0 -25 1 -44 1 -69 0 -76 -2 -84 -24 -14 -38 19 -115
71 -169 130 -129 338 -115 437 31 76 112 68 244 -20 329 -33 31 -62 47 -159
85 -118 48 -152 77 -148 129 1 16 15 43 30 60 25 26 33 29 73 24 46 -5 78 -29
90 -67 7 -21 24 -26 89 -25 63 0 74 16 57 78 -8 28 -29 61 -54 87 -73 77 -171
103 -265 71z"/>
<path d="M2421 5855 c-199 -44 -340 -121 -478 -261 -347 -354 -341 -929 14
-1277 174 -171 388 -258 633 -258 136 1 176 6 285 42 276 92 478 290 575 565
39 112 45 154 44 319 -1 120 -5 153 -28 228 -93 310 -324 537 -637 627 -95 28
-313 35 -408 15z m351 -405 c355 -134 454 -584 188 -850 -109 -109 -216 -153
-370 -154 -278 -1 -504 219 -515 502 -11 305 257 558 564 531 42 -4 102 -17
133 -29z"/>
<path d="M14105 5850 c-313 -70 -552 -279 -665 -582 -33 -91 -49 -188 -48
-313 0 -445 310 -806 763 -890 41 -7 230 -7 285 1 82 11 244 71 321 117 270
165 441 463 442 772 0 51 -9 154 -18 190 -28 126 -66 216 -134 320 -49 74
-188 220 -221 230 -11 4 -20 10 -20 14 0 23 -226 121 -339 147 -65 15 -287 12
-366 -6z m356 -395 c59 -19 172 -90 204 -127 47 -54 82 -105 99 -141 59 -129
66 -278 17 -406 -44 -116 -142 -226 -250 -280 -50 -25 -73 -33 -131 -48 -42
-10 -157 -9 -210 2 -139 29 -286 138 -352 261 -90 167 -80 375 26 534 128 194
374 278 597 205z"/>
<path d="M6499 5405 c-7 0 -2 -428 5 -432 5 -4 1510 -6 3345 -6 l3336 0 7 69
c12 108 27 183 56 269 15 44 27 84 27 90 0 7 -1136 10 -3387 10 -1864 0 -3389
0 -3389 0z"/>
<path d="M15310 5397 c0 -4 4 -15 9 -25 31 -58 67 -210 76 -322 4 -41 8 -77
11 -79 3 -3 638 -5 722 -2 l22 1 0 218 0 217 -420 0 c-231 0 -420 -3 -420 -8z"/>
</g>
</svg>
